<svg xmlns="http://www.w3.org/2000/svg" width="512pt" height="512pt" viewBox="0 0 512 512"><path d="M511.996 489.445a44.928 44.928 0 0 0-27.379-41.394L357.07 393.785v-31.8c13.504-16.954 22.043-37.145 24.903-58.825h26.074c24.812 0 45-20.187 45-45v-64.512c0-22.687-16.883-41.496-38.742-44.554C411.062 51.496 356.496 0 256 0S100.937 51.496 97.695 149.094c-21.86 3.058-38.742 21.867-38.742 44.554v64.512c0 24.813 20.188 45 45 45h26.074c2.86 21.684 11.399 41.875 24.903 58.824v31.801L27.387 448.051A44.937 44.937 0 0 0 0 489.449v7.543a15.003 15.003 0 0 0 15 15.004h482a15.01 15.01 0 0 0 10.61-4.394 15.015 15.015 0 0 0 4.39-10.61zm-184.91-85.136c.012.359.852 36.765-20.652 59.16-11.809 12.293-28.778 18.523-50.434 18.523-21.578 0-38.504-6.187-50.305-18.39-21.761-22.512-20.789-58.977-20.78-59.293.01-.204.015-.403.015-.606v-14.851c20.539 12.996 45.039 19.976 71.07 19.976s50.531-6.98 71.07-19.976v14.851c0 .203.004.402.016.606zm25.96-124.176l-28.534 19.027A54.824 54.824 0 0 1 294 308.398h-25.371c-8.281 0-15 6.715-15 15 0 8.286 6.719 15 15 15H294a84.713 84.713 0 0 0 47.156-14.28l5.742-3.829c-13.535 34.926-48.152 58.54-90.898 58.54-55.324 0-97.047-39.552-97.047-92V165.222c5.914-27.493 14.48-44.965 24.809-50.567 10.285-5.586 25.23.223 39.683 5.836 11.262 4.371 21.899 8.504 32.555 8.504 10.754 0 21.262-4.176 32.39-8.594 14.47-5.75 28.137-11.18 38.262-5.898 7.38 3.848 17.899 15.828 26.395 50.91zm70-86.485v64.512c0 8.27-6.73 15-15 15h-25v-94.512h25c8.27 0 15 6.73 15 15zM154.439 66.746C175.21 42.363 209.378 30 256 30s80.79 12.363 101.563 36.746c16.355 19.2 25.316 46.727 26.703 81.902h-4.602c-9.059-32.171-21.629-51.613-39.14-60.746-22.31-11.632-44.989-2.625-63.211 4.618-8.016 3.183-16.305 6.476-21.317 6.476-5.035 0-13.504-3.289-21.691-6.469-18.867-7.332-42.352-16.453-64.856-4.242-16.969 9.211-29.254 29.02-37.39 60.363h-4.325c1.383-35.175 10.348-62.703 26.704-81.902zM88.953 258.16v-64.512c0-8.27 6.73-15 15-15h25v94.512h-25c-8.27 0-15-6.73-15-15zM39.13 475.656l117.52-50c2.632 16.278 9.171 38.426 25.203 56.34H31.984a14.966 14.966 0 0 1 7.145-6.34zm291.02 6.34c16.03-17.914 22.57-40.062 25.203-56.34l117.52 50a14.984 14.984 0 0 1 7.144 6.34zm0 0"/></svg>