<svg xmlns="http://www.w3.org/2000/svg" viewBox="0 0 512 512"><path d="M296 80.477a9.969 9.969 0 0 0-9.99 9.99c0 6.359 5.796 11.039 11.99 9.788a9.96 9.96 0 0 0 7.99-9.788c0-5.53-4.452-9.99-9.99-9.99zm-40-.01c-19.149 0-18.159-.863-37.098-2.712-5.499-.54-10.388 3.484-10.925 8.98-.537 5.497 3.484 10.388 8.981 10.925 18.362 1.793 18.596 2.807 39.042 2.807 5.523 0 10-4.477 10-10s-4.477-10-10-10z"/><path d="M450.462 348.27l-34.951-11.653 13.559-13.559a10.001 10.001 0 0 0-1.359-15.279l-73.718-51.301 5.968-64.598C397.051 185.201 466 167.759 466 130.467c0-36.146-64.607-53.474-100.216-60.342.14-3.408.216-6.845.216-10.288 0-29.075-4.995-45.773-16.195-54.143-13.463-10.061-31.281-4.797-50.145.776-13.275 3.922-28.322 8.367-43.661 8.367s-30.385-4.445-43.661-8.367c-18.864-5.574-36.682-10.836-50.145-.776C150.995 14.064 146 30.762 146 59.837c0 3.445.075 6.883.215 10.288C110.505 77.013 46 94.349 46 130.467c0 37.293 68.952 54.735 106.038 61.413l5.968 64.598-73.718 51.301a10 10 0 0 0-1.359 15.279l13.56 13.559-34.95 11.653A89.882 89.882 0 0 0 0 433.647v68.34c0 5.523 4.477 10 10 10h492c5.523 0 10-4.477 10-10v-68.34a89.881 89.881 0 0 0-61.538-85.377zM174.167 21.715c5.436-4.063 18.585-.178 32.506 3.935 14.576 4.306 31.096 9.187 49.327 9.187 18.231 0 34.751-4.881 49.327-9.187 13.921-4.113 27.071-7.997 32.506-3.935 3.05 2.279 8.167 10.263 8.167 38.122 0 18.421-2.206 37.269-6.817 55.116-26.056 3.66-54.005 5.514-83.183 5.514-29.178 0-57.126-1.854-83.183-5.514C168.142 96.856 166 78.013 166 59.837c0-27.859 5.117-35.842 8.167-38.122zM66 130.467c0-12.312 28.07-29.593 81.855-40.288 1.534 12.558 4.025 24.806 7.459 36.529a10 10 0 0 0 8.077 7.073c28.86 4.437 60.019 6.686 92.609 6.686 32.59 0 63.75-2.25 92.609-6.686a10 10 0 0 0 8.077-7.073c3.434-11.723 5.924-23.971 7.459-36.529C417.93 100.875 446 118.155 446 130.467c0 13.585-33.279 32.71-96.887 42.979-28.397 4.593-60.595 7.021-93.113 7.021s-64.716-2.428-93.116-7.022C99.279 163.177 66 144.052 66 130.467zm190 195.52c-22.938 0-44.655-10.002-59.585-27.445-10.821-12.634-16.919-27.877-18.417-43.075l-5.58-60.398c26.148 3.538 54.763 5.398 83.583 5.398s57.436-1.86 83.583-5.398l-5.576 60.34a78.124 78.124 0 0 1-18.425 43.135c-14.928 17.44-36.645 27.443-59.583 27.443zm50.968 5.774l-7.124 29.392c-8.44 9.726-24.645 24.835-43.844 24.835s-35.404-15.109-43.844-24.835l-7.124-29.392c15.203 9.21 32.778 14.226 50.968 14.226s35.766-5.016 50.968-14.226zM20 491.987v-58.34a69.905 69.905 0 0 1 47.863-66.403l44.436-14.815 22.004 22.004-49.851 33.234a9.998 9.998 0 0 0-2.654 14.042l49.031 70.278H20zm135.215 0l-51.171-73.345 51.501-34.334a9.999 9.999 0 0 0 1.524-15.392l-51.548-51.548 56.839-39.554a98.06 98.06 0 0 0 16.497 30.859l44.428 183.314h-68.07zm88.651 0l-23.58-97.291c11.597 7.384 23.753 11.291 35.714 11.291s24.117-3.907 35.714-11.291l-23.58 97.291h-24.268zm44.847 0l44.429-183.314a98.05 98.05 0 0 0 16.497-30.859l56.838 39.554-51.548 51.548a10.003 10.003 0 0 0 1.524 15.392l51.501 34.334-51.171 73.345h-68.07zm203.287 0H381.17l49.031-70.278a10 10 0 0 0-2.654-14.042l-49.851-33.234 22.004-22.004 44.438 14.815A69.906 69.906 0 0 1 492 433.647v58.34z"/></svg>